<svg xmlns="http://www.w3.org/2000/svg" xmlns:xlink="http://www.w3.org/1999/xlink" viewBox="0 0 691 691"><defs><style>.cls-1{fill:none;}.cls-2{fill:#fff;}.cls-3{clip-path:url(#clip-path);}</style><clipPath id="clip-path"><rect class="cls-1" x="140.54" y="136.06" width="409.92" height="410.88"/></clipPath></defs><title>자산 6</title><g id="레이어_2" data-name="레이어 2"><g id="레이어_1-2" data-name="레이어 1"><circle class="cls-2" cx="345.5" cy="345.5" r="345.5"/><g class="cls-3"><path d="M345.34,313.88c8.6,0,16.1-3.24,20.48-5.64,4.38,2.4,11.87,5.64,20.48,5.64,12.71,0,26.92-7.22,33-16.69.6-.91,14.8-22.61,14.8-58.4A47.84,47.84,0,0,0,386.3,191c-7.72,0-14.76,2.83-20.48,5.84-5.72-3-12.76-5.84-20.48-5.84a47.84,47.84,0,0,0-47.79,47.79c0,40.45,12.58,56.16,15.32,59.09,6.17,7.77,18.84,16,32.47,16Zm0-109.23c6.09,0,12.31,3.15,17.06,5.9a6.8,6.8,0,0,0,6.84,0c4.75-2.75,11-5.9,17.06-5.9a34.17,34.17,0,0,1,34.14,34.13c0,31.41-12.39,50.65-12.57,50.93-3.19,5-12.82,10.51-21.56,10.51s-16.36-5.44-16.41-5.47a6.82,6.82,0,0,0-8.15,0c-.07.05-7.6,5.47-16.4,5.47s-17.78-5.67-21.91-11c-.14-.18-.37-.44-.53-.6s-11.7-12.82-11.7-49.83a34.16,34.16,0,0,1,34.13-34.13Zm0,0"/><path d="M360,180.86a6.82,6.82,0,1,0,11.7-7l-20.48-34.13a6.82,6.82,0,1,0-11.7,7Zm0,0"/></g><path d="M381.28,179.87a36.06,36.06,0,0,0,10.59,1.56h0c8.16,0,15.27-2.79,20.52-8,12.49-12.49,6.73-30.36,6.48-31.12a6.84,6.84,0,0,0-4.31-4.32A36.28,36.28,0,0,0,404,136.4c-8.16,0-15.26,2.78-20.52,8-12.49,12.5-6.72,30.36-6.48,31.12a6.81,6.81,0,0,0,4.32,4.32Zm11.81-25.79c2.68-2.67,6.33-4,10.86-4a23.53,23.53,0,0,1,2.68.16c.41,3.68.22,9.42-3.89,13.53-2.68,2.67-6.33,4-10.86,4a24.06,24.06,0,0,1-2.68-.16c-.42-3.68-.23-9.42,3.88-13.54Zm0,0"/><path d="M529.66,327.53H202A20.5,20.5,0,0,0,181.5,348v27.3a6.83,6.83,0,1,0,13.65,0V348a6.84,6.84,0,0,1,6.82-6.83h20.48v34.13a6.83,6.83,0,1,0,13.65,0V341.18h177.5v34.13a6.83,6.83,0,1,0,13.65,0V341.18h68.27v34.13a6.83,6.83,0,1,0,13.65,0V341.18h20.48a6.84,6.84,0,0,1,6.82,6.83v47.78H516a6.83,6.83,0,0,0-6.83,6.83v61.44h-6.83a6.83,6.83,0,0,0,0,13.65h20.48V525.5a6.83,6.83,0,0,1-6.82,6.82H304.38V498.19a6.83,6.83,0,1,0-13.65,0v34.13H277.07V498.19a6.83,6.83,0,1,0-13.65,0v34.13H249.77V498.19a6.83,6.83,0,1,0-13.65,0v34.13H174.67a6.83,6.83,0,0,1-6.82-6.82V498.19a6.83,6.83,0,0,0-13.65,0V525.5A20.51,20.51,0,0,0,174.67,546H516a20.51,20.51,0,0,0,20.48-20.48V477.71c0-8.87-7-13.65-13.66-13.65V409.45h13.66c6.62,0,13.65-4.79,13.65-13.65V348a20.51,20.51,0,0,0-20.48-20.48Zm0,0"/><path d="M406.78,477.72a6.83,6.83,0,1,0,0-13.66H331.68V409.45h95.57v102.4a6.83,6.83,0,0,0,10.62,5.68l16.69-11.13,16.69,11.13a6.82,6.82,0,0,0,10.61-5.68V409.45h6.83a6.83,6.83,0,1,0,0-13.65H161a20.26,20.26,0,0,0-20.48,20.48v41A20.51,20.51,0,0,0,161,477.72Zm34.13-68.27h27.31v89.64l-9.87-6.57a6.84,6.84,0,0,0-7.58,0l-9.86,6.57Zm-218.45,0H318v54.61H222.46Zm-68.27,47.79v-41a6.68,6.68,0,0,1,6.83-6.83h47.79v54.61H161a6.75,6.75,0,0,1-6.83-6.82Zm0,0"/><path d="M283.9,423.1a6.83,6.83,0,0,0-6.83,6.83v13.65a6.83,6.83,0,1,0,13.66,0V429.93a6.83,6.83,0,0,0-6.83-6.83Zm0,0"/><path d="M256.59,423.1a6.83,6.83,0,0,0-6.82,6.83v13.65a6.83,6.83,0,1,0,13.65,0V429.93a6.83,6.83,0,0,0-6.83-6.83Zm0,0"/></g></g></svg>