<svg xmlns="http://www.w3.org/2000/svg" viewBox="0 0 691 691"><defs><style>.cls-1{fill:#fff;}</style></defs><title>자산 2</title><g id="레이어_2" data-name="레이어 2"><g id="레이어_1-2" data-name="레이어 1"><circle class="cls-1" cx="345.5" cy="345.5" r="345.5"/><path d="M289.89,378.29a6.83,6.83,0,0,0,6.82,6.83H324a6.83,6.83,0,0,0,6.82-6.83v-41A6.83,6.83,0,0,0,324,330.5H296.71a6.83,6.83,0,0,0-6.82,6.82Zm13.65-34.13h13.65v27.31H303.54Zm0,0"/><path d="M296.71,303.19H324a6.83,6.83,0,0,0,6.82-6.82v-41a6.83,6.83,0,0,0-6.82-6.83H296.71a6.83,6.83,0,0,0-6.82,6.83v41a6.83,6.83,0,0,0,6.82,6.82Zm6.83-41h13.65v27.3H303.54Zm0,0"/><path d="M245.61,254.43,344.5,195.1l98.88,59.33a6.83,6.83,0,1,0,7-11.7l-99.09-59.45V139.35h34.14V153H365a6.83,6.83,0,1,0,0,13.65h27.3a6.83,6.83,0,0,0,6.83-6.83V132.53a6.83,6.83,0,0,0-6.83-6.83H344.5a6.83,6.83,0,0,0-6.83,6.83v50.75l-99.09,59.46a6.82,6.82,0,1,0,7,11.7Zm0,0"/><path d="M214.79,385.11a6.83,6.83,0,0,0,6.83-6.83v-41a6.83,6.83,0,0,0-6.83-6.83H187.48a6.83,6.83,0,0,0-6.82,6.83V351a6.83,6.83,0,0,0,13.65,0v-6.83H208v34.13a6.83,6.83,0,0,0,6.83,6.83Zm0,0"/><path d="M262.58,473.86v-198a6.83,6.83,0,1,0-13.65,0v198a6.83,6.83,0,1,0,13.65,0Zm0,0"/><path d="M228.45,508H460.55a6.83,6.83,0,1,0,0-13.65H399.11V426.07h6.82a6.83,6.83,0,1,0,0-13.65H283.06a6.83,6.83,0,0,0,0,13.65h6.83v68.27H228.45a6.83,6.83,0,0,0,0,13.65Zm122.88-41a6.83,6.83,0,1,0,0-13.65v-27.3h34.14v68.27H351.32Zm-47.79-41h34.13v27.3a6.83,6.83,0,0,0,0,13.65v27.31H303.54Zm0,0"/><path d="M501.51,419.25h-27.3a6.83,6.83,0,0,0-6.83,6.82v41a6.83,6.83,0,0,0,6.83,6.83h27.3a6.83,6.83,0,0,0,6.83-6.83v-41a6.83,6.83,0,0,0-6.83-6.82Zm-6.82,41H481V432.9h13.66Zm0,0"/><path d="M501.51,337.32h-27.3a6.83,6.83,0,0,0-6.83,6.83v41a6.83,6.83,0,0,0,6.83,6.82h27.3a6.83,6.83,0,0,0,6.83-6.82v-41a6.83,6.83,0,0,0-6.83-6.83Zm-6.82,41H481V351h13.66Zm0,0"/><path d="M487.86,521.64H201.14a6.83,6.83,0,0,0,0,13.66H487.86a6.83,6.83,0,0,0,0-13.66Zm0,0"/><path d="M542.47,275.89a6.83,6.83,0,0,0-6.83,6.83v6.83H460.55a6.83,6.83,0,1,0,0,13.65h75.09V528.47a6.83,6.83,0,0,0,13.66,0V282.71a6.83,6.83,0,0,0-6.83-6.83Zm0,0"/><path d="M358.15,378.29a6.83,6.83,0,0,0,6.83,6.83h27.3a6.83,6.83,0,0,0,6.83-6.83v-41a6.83,6.83,0,0,0-6.83-6.82H365a6.83,6.83,0,0,0-6.83,6.82Zm13.65-34.13h13.66v27.31H371.8Zm0,0"/><path d="M208,460.21c0-.89-.39-88.75-34.13-88.75s-34.13,87.86-34.13,88.75A34.19,34.19,0,0,0,167,493.65v34.82a6.83,6.83,0,1,0,13.66,0V493.65A34.19,34.19,0,0,0,208,460.21Zm-34.13,20.48a20.51,20.51,0,0,1-20.48-20.48c0-34,9.14-75.09,20.48-75.09s20.48,41.08,20.48,75.09a20.51,20.51,0,0,1-20.48,20.48Zm0,0"/><path d="M440.07,473.86V269.06a6.83,6.83,0,0,0-13.65,0v204.8a6.83,6.83,0,1,0,13.65,0Zm0,0"/><path d="M365,303.19h27.3a6.83,6.83,0,0,0,6.83-6.82v-41a6.83,6.83,0,0,0-6.83-6.83H365a6.83,6.83,0,0,0-6.83,6.83v41a6.83,6.83,0,0,0,6.83,6.82Zm6.82-41h13.66v27.3H371.8Zm0,0"/><path d="M146.53,364.63a6.83,6.83,0,0,0,6.82-6.83V303.19h75.09a6.83,6.83,0,1,0,0-13.65H153.35v-6.82a6.83,6.83,0,1,0-13.65,0V357.8a6.83,6.83,0,0,0,6.83,6.83Zm0,0"/></g></g></svg>