<svg xmlns="http://www.w3.org/2000/svg" xmlns:xlink="http://www.w3.org/1999/xlink" viewBox="0 0 409.6 409.61"><defs><style>.cls-1{fill:none;}.cls-2{fill:#fff;}.cls-3{clip-path:url(#clip-path);}</style><clipPath id="clip-path" transform="translate(0 -0.32)"><rect class="cls-1" width="409.92" height="410.88"/></clipPath></defs><title>자산 9</title><g id="레이어_2" data-name="레이어 2"><g id="레이어_1-2" data-name="레이어 1"><path class="cls-2" d="M232.84,194.57a6.85,6.85,0,0,0,6.1,3.73,6.76,6.76,0,0,0,3.09-.75c.4-.2,40.59-20.61,60.4-26.87a6.83,6.83,0,0,0-4.12-13c-20.87,6.6-60.79,26.88-62.48,27.73a6.83,6.83,0,0,0-3,9.18Zm0,0" transform="translate(0 -0.32)"/><g class="cls-3"><path class="cls-2" d="M238.94,116.38a6.81,6.81,0,0,0,3.09-.75c.4-.2,40.59-20.62,60.4-26.88a6.83,6.83,0,0,0-4.12-13c-20.87,6.6-60.79,26.88-62.48,27.74a6.83,6.83,0,0,0,3.1,12.91Zm0,0" transform="translate(0 -0.32)"/><path class="cls-2" d="M402.77,102.72a6.83,6.83,0,0,0-6.83,6.83V375.79a20.5,20.5,0,0,1-20.48,20.48H211.63V380.56c10-3.48,35.88-11.6,61.44-11.6,59.47,0,99.85,13.17,100.25,13.3a6.83,6.83,0,0,0,9-6.48V75.41a6.82,6.82,0,0,0-5.34-6.66s-5.35-1.2-14.5-2.88A6.83,6.83,0,0,0,360,79.3c3.49.64,6.41,1.21,8.66,1.66V366.71c-15.47-4.06-49.82-11.41-95.57-11.41-29.74,0-59,9.77-68,13.08-8-3.55-32.32-13.08-61.71-13.08A460,460,0,0,0,41,367V80.7a449.33,449.33,0,0,1,102.4-12.11c24.89,0,46.24,7.75,54.61,11.25V348.48a6.83,6.83,0,0,0,10.34,5.85c.68-.4,68.31-40.8,128.35-60.81a6.83,6.83,0,0,0,4.67-6.48V7.14A6.84,6.84,0,0,0,332.1.75C277.48,21.24,222.21,55.63,221.66,56a6.83,6.83,0,0,0,7.24,11.58c.5-.32,48.59-30.24,98.78-50.42v265c-46.6,16.19-95.25,42.63-116.05,54.47V75.41a6.83,6.83,0,0,0-3.77-6.11,158.07,158.07,0,0,0-64.49-14.37c-61.69,0-109.11,13.35-111.11,13.92a6.83,6.83,0,0,0-4.95,6.56V375.79a6.82,6.82,0,0,0,6.83,6.83,6.78,6.78,0,0,0,1.87-.27c.47-.13,47.68-13.39,107.36-13.39,25,0,46.29,7.77,54.61,11.26v16H34.13a20.5,20.5,0,0,1-20.48-20.48V109.55a6.83,6.83,0,1,0-13.65,0V375.79a34.17,34.17,0,0,0,34.13,34.14H375.47a34.17,34.17,0,0,0,34.13-34.14V109.55a6.83,6.83,0,0,0-6.83-6.83Zm0,0" transform="translate(0 -0.32)"/></g><path class="cls-2" d="M232.84,153.61a6.84,6.84,0,0,0,9.19,3c.4-.21,40.59-20.62,60.4-26.88a6.83,6.83,0,0,0-4.12-13c-20.87,6.6-60.79,26.87-62.48,27.73a6.83,6.83,0,0,0-3,9.18Zm0,0" transform="translate(0 -0.32)"/><path class="cls-2" d="M232.84,235.52a6.83,6.83,0,0,0,9.19,3c.4-.2,40.59-20.62,60.4-26.87a6.83,6.83,0,0,0-4.12-13c-20.87,6.6-60.79,26.88-62.48,27.74a6.83,6.83,0,0,0-3,9.18Zm0,0" transform="translate(0 -0.32)"/><path class="cls-2" d="M165.4,127c-42.16-9.89-90.06,2.71-92.07,3.25a6.83,6.83,0,0,0,1.76,13.42,7,7,0,0,0,1.78-.23c.46-.13,46.58-12.26,85.42-3.15A6.83,6.83,0,1,0,165.4,127Zm0,0" transform="translate(0 -0.32)"/><path class="cls-2" d="M165.4,168c-42.16-9.88-90.06,2.71-92.07,3.25a6.83,6.83,0,1,0,3.54,13.19c.46-.13,46.58-12.26,85.42-3.14A6.83,6.83,0,1,0,165.4,168Zm0,0" transform="translate(0 -0.32)"/><path class="cls-2" d="M232.84,276.48a6.84,6.84,0,0,0,9.19,3c.4-.2,40.59-20.62,60.4-26.88a6.83,6.83,0,0,0-4.12-13c-20.87,6.6-60.79,26.88-62.48,27.74a6.83,6.83,0,0,0-3,9.18Zm0,0" transform="translate(0 -0.32)"/><path class="cls-2" d="M165.4,208.93c-42.16-9.89-90.06,2.7-92.07,3.25a6.83,6.83,0,0,0,1.76,13.43,7,7,0,0,0,1.78-.24c.46-.13,46.58-12.26,85.42-3.15a6.82,6.82,0,1,0,3.11-13.29Zm0,0" transform="translate(0 -0.32)"/><path class="cls-2" d="M165.4,290.85c-42.16-9.89-90.06,2.71-92.07,3.25a6.83,6.83,0,0,0,1.76,13.43,7,7,0,0,0,1.78-.24c.46-.13,46.58-12.26,85.42-3.15a6.83,6.83,0,1,0,3.11-13.29Zm0,0" transform="translate(0 -0.32)"/><path class="cls-2" d="M165.4,249.89c-42.16-9.89-90.06,2.7-92.07,3.25a6.83,6.83,0,0,0,1.76,13.43,7,7,0,0,0,1.78-.24c.46-.13,46.58-12.26,85.42-3.15a6.82,6.82,0,1,0,3.11-13.29Zm0,0" transform="translate(0 -0.32)"/></g></g></svg>