<svg xmlns="http://www.w3.org/2000/svg" xmlns:xlink="http://www.w3.org/1999/xlink" viewBox="0 0 354.99 409.6"><defs><style>.cls-1{fill:none;}.cls-2{fill:#fff;}.cls-3{clip-path:url(#clip-path);}</style><clipPath id="clip-path" transform="translate(0 -0.32)"><rect class="cls-1" width="354.96" height="410.88"/></clipPath></defs><title>자산 10</title><g id="레이어_2" data-name="레이어 2"><g id="레이어_1-2" data-name="레이어 1"><path class="cls-2" d="M75.09,300.7h41a6.83,6.83,0,0,0,0-13.65h-41a6.83,6.83,0,1,0,0,13.65Zm0,0" transform="translate(0 -0.32)"/><path class="cls-2" d="M75.09,341.65H157A6.83,6.83,0,1,0,157,328H75.09a6.83,6.83,0,1,0,0,13.65Zm0,0" transform="translate(0 -0.32)"/><path class="cls-2" d="M101.75,192.74a13.83,13.83,0,0,1,6.2,6.42,6.83,6.83,0,0,0,12.37-5.77A27.56,27.56,0,0,0,108,180.58a6.83,6.83,0,1,0-6.2,12.16Zm0,0" transform="translate(0 -0.32)"/><path class="cls-2" d="M218.45,293.87a6.82,6.82,0,0,0-6.82-6.83H143.36a6.83,6.83,0,0,0,0,13.65h68.27a6.82,6.82,0,0,0,6.82-6.82Zm0,0" transform="translate(0 -0.32)"/><path class="cls-2" d="M101.75,70.05a13.76,13.76,0,0,1,6.2,6.42,6.83,6.83,0,0,0,12.37-5.78A27.51,27.51,0,0,0,108,57.89a6.83,6.83,0,1,0-6.2,12.16Zm0,0" transform="translate(0 -0.32)"/><path class="cls-2" d="M52,115.08C47.06,120,41,128.93,41,143.68s6.09,23.71,11.08,28.6a54.27,54.27,0,0,0,2.57,68.85v25.43a6.83,6.83,0,1,0,13.65,0V252.34a54.6,54.6,0,1,0-6.74-89.84c-2.94-2.9-6.91-8.68-6.91-18.82s4-15.91,6.91-18.81A54.63,54.63,0,1,0,68.27,35V14h181.5L316,80.24a6.83,6.83,0,1,0,9.65-9.66L257.41,2.32a6.81,6.81,0,0,0-4.83-2H61.44a6.83,6.83,0,0,0-6.83,6.83V46.23A54.27,54.27,0,0,0,52,115.08Zm43.54-73.8a41,41,0,1,1-41,41,41,41,0,0,1,41-41Zm0,122.88a41,41,0,1,1-41,41,41,41,0,0,1,41-41Zm0,0" transform="translate(0 -0.32)"/><path class="cls-2" d="M286.72,293.87a6.82,6.82,0,0,0-6.82-6.83h-41a6.83,6.83,0,1,0,0,13.65h41a6.82,6.82,0,0,0,6.82-6.82Zm0,0" transform="translate(0 -0.32)"/><path class="cls-2" d="M279.89,164.16H225.28a6.83,6.83,0,1,0,0,13.65h54.61a6.83,6.83,0,0,0,0-13.65Zm0,0" transform="translate(0 -0.32)"/><g class="cls-3"><path class="cls-2" d="M184.32,341.65h68.27a6.83,6.83,0,1,0,0-13.65H184.32a6.83,6.83,0,1,0,0,13.65Zm0,0" transform="translate(0 -0.32)"/><path class="cls-2" d="M348.16,95.89H279.89a20.5,20.5,0,0,1-20.48-20.48V41.28a6.83,6.83,0,1,0-13.65,0V75.41a34.17,34.17,0,0,0,34.13,34.13h61.44V375.79a20.26,20.26,0,0,1-20.48,20.48H34.13a20.51,20.51,0,0,1-20.48-20.48V34.45A20.51,20.51,0,0,1,34.13,14a6.83,6.83,0,1,0,0-13.65A34.17,34.17,0,0,0,0,34.45V375.79a34.17,34.17,0,0,0,34.13,34.13H320.86A33.77,33.77,0,0,0,355,375.79V102.72a6.83,6.83,0,0,0-6.83-6.82Zm0,0" transform="translate(0 -0.32)"/></g><path class="cls-2" d="M157,252.91a6.83,6.83,0,0,0,6.83,6.83h102.4a6.83,6.83,0,1,0,0-13.65H163.84a6.83,6.83,0,0,0-6.83,6.82Zm0,0" transform="translate(0 -0.32)"/><path class="cls-2" d="M170.67,211.95a6.83,6.83,0,0,0,6.82,6.83h34.14a6.83,6.83,0,0,0,0-13.65H177.49a6.83,6.83,0,0,0-6.82,6.82Zm0,0" transform="translate(0 -0.32)"/><path class="cls-2" d="M266.24,218.77a6.83,6.83,0,1,0,0-13.65h-27.3a6.83,6.83,0,1,0,0,13.65Zm0,0" transform="translate(0 -0.32)"/><path class="cls-2" d="M198,164.16H170.67a6.83,6.83,0,1,0,0,13.65H198a6.83,6.83,0,1,0,0-13.65Zm0,0" transform="translate(0 -0.32)"/></g></g></svg>