<svg xmlns="http://www.w3.org/2000/svg" viewBox="0 0 691 691"><defs><style>.cls-1{fill:#fff;}</style></defs><title>자산 1</title><g id="레이어_2" data-name="레이어 2"><g id="레이어_1-2" data-name="레이어 1"><circle class="cls-1" cx="345.5" cy="345.5" r="345.5"/><path d="M370.8,511.34a6.82,6.82,0,0,0-9.65,9.65l27.31,27.31a6.83,6.83,0,0,0,9.65-9.66Zm0,0"/><path d="M345.5,468.38a6.82,6.82,0,0,0-6.83,6.83v17.65l-45.79,45.78a6.83,6.83,0,1,0,9.65,9.65l47.78-47.79a6.84,6.84,0,0,0,2-4.82V475.21a6.82,6.82,0,0,0-6.82-6.83Zm0,0"/><path d="M543.47,154.35H352.32v-6.82a6.83,6.83,0,1,0-13.65,0v6.82H147.53a6.83,6.83,0,0,0-6.83,6.83v27.3a6.82,6.82,0,0,0,6.83,6.83h355a6.83,6.83,0,1,0,0-13.65H154.35V168H536.64v13.66h-6.82a6.82,6.82,0,0,0-6.83,6.82V420.59a20.5,20.5,0,0,1-20.48,20.48h-314A20.5,20.5,0,0,1,168,420.59V215.79a6.83,6.83,0,1,0-13.65,0v204.8a34.17,34.17,0,0,0,34.14,34.13h314a34.17,34.17,0,0,0,34.13-34.13V195.31h6.83a6.83,6.83,0,0,0,6.83-6.83v-27.3a6.83,6.83,0,0,0-6.83-6.83Zm0,0"/><path d="M447.9,277.23c19.26,0,20.44,17.07,20.48,20.51a6.83,6.83,0,0,0,13.65,0c0-11.81-7.13-34.14-34.13-34.14s-34.13,22.32-34.13,34.14V325c0,11.8,7.13,34.13,34.13,34.13S482,336.82,482,325a6.81,6.81,0,0,0-6.79-6.81h0a6.84,6.84,0,0,0-6.83,6.77c0,3.43-1.21,20.52-20.48,20.52S427.46,328.41,427.42,325V297.75c0-3.43,1.21-20.51,20.48-20.51Zm0,0"/><path d="M277.76,341.3a6.82,6.82,0,0,0,6.3,4.2,6.7,6.7,0,0,0,2.63-.53,6.83,6.83,0,0,0,3.67-8.93l-34.13-81.92a6.83,6.83,0,0,0-12.6,0L209.49,336a6.83,6.83,0,0,0,12.6,5.26l3.94-9.46H243.1a6.83,6.83,0,1,0,0-13.65H231.72l18.21-43.69Zm0,0"/><path d="M325,290.89a6.82,6.82,0,0,0-6.83,6.83v81.92a6.82,6.82,0,0,0,6.83,6.82h27.31c11.8,0,34.14-5.71,34.14-27.31,0-8.66-3.59-14.77-8.66-19,5.74-4.91,8.66-12.3,8.66-22,0-10.12-3.19-17.74-9.46-22.64-10.43-8.14-24.73-4.86-26.32-4.46a6.82,6.82,0,1,0,3.3,13.24c.1,0,9.39-2.1,14.62,2,2.79,2.19,4.21,6.18,4.21,11.88s-1.41,9.67-4.18,11.85c-2.28,1.8-5.45,2.44-8.33,2.55a46,46,0,0,0-8-.75,6.83,6.83,0,0,0-1.65,13.45,38.08,38.08,0,0,0,8.4,1c6,1.24,13.73,4.48,13.73,12.88,0,13.37-19.67,13.65-20.48,13.65H331.84V297.71a6.82,6.82,0,0,0-6.82-6.83Zm0,0"/></g></g></svg>