<svg xmlns="http://www.w3.org/2000/svg" viewBox="0 0 691 691"><defs><style>.cls-1{fill:#fff;}</style></defs><title>자산 7</title><g id="레이어_2" data-name="레이어 2"><g id="레이어_1-2" data-name="레이어 1"><circle class="cls-1" cx="345.5" cy="345.5" r="345.5"/><path d="M434.25,277.23H420.59a6.83,6.83,0,1,0,0,13.65h13.65a6.83,6.83,0,0,0,0-13.65Zm0,0"/><path d="M434.25,304.54H420.59a6.83,6.83,0,1,0,0,13.65h13.65a6.83,6.83,0,0,0,0-13.65Zm0,0"/><path d="M434.25,249.93H420.59a6.83,6.83,0,1,0,0,13.65h13.65a6.83,6.83,0,0,0,0-13.65Zm0,0"/><path d="M434.25,468.38H420.59a6.83,6.83,0,1,0,0,13.65h13.65a6.83,6.83,0,0,0,0-13.65Zm0,0"/><path d="M284.06,249.93h-41a6.83,6.83,0,0,0-6.82,6.83v95.57a6.83,6.83,0,0,0,6.82,6.83h41a6.83,6.83,0,0,0,6.83-6.83V256.75a6.83,6.83,0,0,0-6.83-6.83Zm-6.82,95.57H249.93V263.58h27.31Zm0,0"/><path d="M284.06,468.38h-41a6.83,6.83,0,0,0,0,13.65h41a6.83,6.83,0,1,0,0-13.65Zm0,0"/><path d="M284.06,495.69h-41a6.83,6.83,0,0,0,0,13.65h41a6.83,6.83,0,1,0,0-13.65Zm0,0"/><path d="M434.25,495.69H420.59a6.83,6.83,0,1,0,0,13.65h13.65a6.83,6.83,0,0,0,0-13.65Zm0,0"/><path d="M516.16,495.69h-27.3a6.83,6.83,0,1,0,0,13.65h27.3a6.83,6.83,0,1,0,0-13.65Zm0,0"/><path d="M372.8,256.75a6.83,6.83,0,0,0-6.82-6.83H338.67a6.83,6.83,0,0,0-6.83,6.83v95.57a6.83,6.83,0,0,0,6.83,6.82H366a6.83,6.83,0,0,0,6.82-6.82ZM359.15,345.5H345.5V263.58h13.65Zm0,0"/><path d="M516.16,468.38h-27.3a6.83,6.83,0,1,0,0,13.65h27.3a6.83,6.83,0,1,0,0-13.65Zm0,0"/><path d="M366,495.69H338.67a6.83,6.83,0,0,0,0,13.65H366a6.83,6.83,0,0,0,0-13.65Zm0,0"/><path d="M488.86,386.46a6.83,6.83,0,0,0,6.83-6.83V311.37a6.83,6.83,0,1,0-13.66,0v68.27a6.83,6.83,0,0,0,6.83,6.83Zm0,0"/><path d="M523,311.37a6.83,6.83,0,1,0-13.65,0v68.27a6.83,6.83,0,0,0,13.65,0Zm0,0"/><path d="M529.82,195.31h-41a6.83,6.83,0,1,0,0,13.65h41a6.84,6.84,0,0,1,6.82,6.83v314a6.83,6.83,0,0,1-6.82,6.82H468.38V249.93h41a6.83,6.83,0,0,0,0-13.65h-41V174.83a20.27,20.27,0,0,0-20.48-20.48h-41a20.51,20.51,0,0,0-20.48,20.48V536.64H318.19v-355H366A6.83,6.83,0,0,0,366,168H318.19v-6.83a20.26,20.26,0,0,0-20.48-20.48H229.45A20.51,20.51,0,0,0,209,161.18v61.44H174.83a6.83,6.83,0,0,0,0,13.65H209V536.64H161.18a6.84,6.84,0,0,1-6.83-6.82V202.14a6.84,6.84,0,0,1,6.83-6.83h27.3a6.83,6.83,0,1,0,0-13.65h-27.3a20.5,20.5,0,0,0-20.48,20.48V529.82a20.51,20.51,0,0,0,20.48,20.48H529.82a20.51,20.51,0,0,0,20.48-20.48v-314a20.51,20.51,0,0,0-20.48-20.48ZM304.54,536.64H222.62V195.31h61.44a6.83,6.83,0,1,0,0-13.65H222.62V161.18a6.75,6.75,0,0,1,6.82-6.83h68.27a6.68,6.68,0,0,1,6.83,6.83Zm150.19,0H400.11V209h34.13a6.83,6.83,0,0,0,0-13.65H400.11V174.83a6.75,6.75,0,0,1,6.82-6.82h41a6.68,6.68,0,0,1,6.83,6.82Zm0,0"/><path d="M188.48,468.38H174.83a6.83,6.83,0,0,0,0,13.65h13.66a6.83,6.83,0,1,0,0-13.65Zm0,0"/><path d="M188.48,495.69H174.83a6.83,6.83,0,0,0,0,13.65h13.66a6.83,6.83,0,0,0,0-13.65Zm0,0"/><path d="M366,468.38H338.67a6.83,6.83,0,0,0,0,13.65H366a6.83,6.83,0,0,0,0-13.65Zm0,0"/><path d="M188.48,304.54H174.83a6.83,6.83,0,0,0,0,13.65h13.66a6.83,6.83,0,1,0,0-13.65Zm0,0"/><path d="M188.48,331.84H174.83a6.83,6.83,0,0,0,0,13.66h13.66a6.83,6.83,0,0,0,0-13.66Zm0,0"/></g></g></svg>