<svg xmlns="http://www.w3.org/2000/svg" xmlns:xlink="http://www.w3.org/1999/xlink" viewBox="0 0 691 691"><defs><style>.cls-1{fill:none;}.cls-2{fill:#fff;}.cls-3{clip-path:url(#clip-path);}</style><clipPath id="clip-path"><rect class="cls-1" x="177.02" y="142.9" width="354.96" height="410.88"/></clipPath></defs><title>자산 4</title><g id="레이어_2" data-name="레이어 2"><g id="레이어_1-2" data-name="레이어 1"><circle class="cls-2" cx="345.5" cy="345.5" r="345.5"/><path d="M252.11,443.6h41a6.83,6.83,0,0,0,0-13.65h-41a6.83,6.83,0,1,0,0,13.65Zm0,0"/><path d="M252.11,484.56H334a6.83,6.83,0,1,0,0-13.65H252.11a6.83,6.83,0,1,0,0,13.65Zm0,0"/><path d="M278.77,335.65a13.83,13.83,0,0,1,6.2,6.42,6.83,6.83,0,0,0,12.37-5.77A27.56,27.56,0,0,0,285,323.48a6.83,6.83,0,1,0-6.2,12.16Zm0,0"/><path d="M395.47,436.77a6.82,6.82,0,0,0-6.82-6.83H320.38a6.83,6.83,0,0,0,0,13.65h68.27a6.82,6.82,0,0,0,6.82-6.82Zm0,0"/><path d="M278.77,213a13.76,13.76,0,0,1,6.2,6.42,6.83,6.83,0,0,0,12.37-5.78A27.51,27.51,0,0,0,285,200.79a6.83,6.83,0,1,0-6.2,12.16Zm0,0"/><path d="M229.06,258c-5,4.88-11.08,13.85-11.08,28.6s6.09,23.71,11.08,28.6A54.27,54.27,0,0,0,231.63,384v25.43a6.83,6.83,0,1,0,13.65,0V395.24a54.6,54.6,0,1,0-6.74-89.84c-2.94-2.9-6.91-8.68-6.91-18.82s4-15.91,6.91-18.81a54.63,54.63,0,1,0,6.74-89.86v-21h181.5L493,223.15a6.83,6.83,0,0,0,9.65-9.66l-68.27-68.27a6.81,6.81,0,0,0-4.83-2H238.46a6.83,6.83,0,0,0-6.83,6.83v39.09A54.27,54.27,0,0,0,229.06,258Zm43.54-73.8a41,41,0,1,1-41,41,41,41,0,0,1,41-41Zm0,122.88a41,41,0,1,1-41,41,41,41,0,0,1,41-41Zm0,0"/><path d="M463.74,436.77a6.82,6.82,0,0,0-6.82-6.83H416a6.83,6.83,0,1,0,0,13.65h41a6.82,6.82,0,0,0,6.82-6.82Zm0,0"/><path d="M456.91,307.06H402.3a6.83,6.83,0,1,0,0,13.65h54.61a6.83,6.83,0,0,0,0-13.65Zm0,0"/><g class="cls-3"><path d="M361.34,484.56h68.27a6.83,6.83,0,1,0,0-13.65H361.34a6.83,6.83,0,1,0,0,13.65Zm0,0"/><path d="M525.18,238.8H456.91a20.5,20.5,0,0,1-20.48-20.48V184.19a6.83,6.83,0,1,0-13.65,0v34.13a34.17,34.17,0,0,0,34.13,34.13h61.44V518.69a20.26,20.26,0,0,1-20.48,20.48H211.15a20.51,20.51,0,0,1-20.48-20.48V177.36a20.51,20.51,0,0,1,20.48-20.48,6.83,6.83,0,1,0,0-13.65A34.17,34.17,0,0,0,177,177.36V518.69a34.17,34.17,0,0,0,34.13,34.13H497.88A33.77,33.77,0,0,0,532,518.69V245.62a6.83,6.83,0,0,0-6.83-6.82Zm0,0"/></g><path d="M334,395.81a6.83,6.83,0,0,0,6.83,6.83h102.4a6.83,6.83,0,1,0,0-13.65H340.86a6.83,6.83,0,0,0-6.83,6.82Zm0,0"/><path d="M347.69,354.85a6.83,6.83,0,0,0,6.82,6.83h34.14a6.83,6.83,0,0,0,0-13.65H354.51a6.83,6.83,0,0,0-6.82,6.82Zm0,0"/><path d="M443.26,361.68a6.83,6.83,0,1,0,0-13.65H416a6.83,6.83,0,1,0,0,13.65Zm0,0"/><path d="M375,307.06H347.69a6.83,6.83,0,1,0,0,13.65H375a6.83,6.83,0,1,0,0-13.65Zm0,0"/></g></g></svg>