<svg xmlns="http://www.w3.org/2000/svg" viewBox="0 0 691 691"><defs><style>.cls-1{fill:#fff;}</style></defs><title>자산 3</title><g id="레이어_2" data-name="레이어 2"><g id="레이어_1-2" data-name="레이어 1"><circle class="cls-1" cx="345.5" cy="345.5" r="345.5"/><path d="M376.46,296a6.83,6.83,0,0,0,6.83,6.83h68.27a6.83,6.83,0,0,0,0-13.66H383.29a6.83,6.83,0,0,0-6.83,6.83Zm0,0"/><path d="M417.42,336.95a6.82,6.82,0,0,0,6.83,6.82h41a6.83,6.83,0,0,0,0-13.65h-41a6.83,6.83,0,0,0-6.83,6.83Zm0,0"/><path d="M410.59,261.85a6.83,6.83,0,1,0,0-13.65H396.94a6.83,6.83,0,0,0,0,13.65Zm0,0"/><path d="M328.67,330.12a6.83,6.83,0,1,0,0,13.65h68.27a6.83,6.83,0,1,0,0-13.65Zm0,0"/><path d="M362.81,521.27H233.1a20.51,20.51,0,0,1-20.48-20.48v-314a6.82,6.82,0,0,0-6.83-6.83,34.17,34.17,0,0,0-34.13,34.13,6.83,6.83,0,1,0,13.65,0A20.52,20.52,0,0,1,199,194.75v306a34.17,34.17,0,0,0,34.13,34.13H362.81a6.83,6.83,0,1,0,0-13.65Zm0,0"/><path d="M260.41,302.81H356a6.83,6.83,0,0,0,0-13.66H260.41a6.83,6.83,0,1,0,0,13.66Zm0,0"/><path d="M260.41,261.85h27.3a6.83,6.83,0,1,0,0-13.65h-27.3a6.83,6.83,0,1,0,0,13.65Zm0,0"/><path d="M369.63,248.2H315a6.83,6.83,0,1,0,0,13.66h54.61a6.83,6.83,0,0,0,0-13.66Zm0,0"/><path d="M465.21,152.78H205.79A61.51,61.51,0,0,0,144.35,214v.32a61.68,61.68,0,0,0,30.71,53,6.82,6.82,0,1,0,6.84-11.81,47.7,47.7,0,0,1,23.89-89H465.21A47.84,47.84,0,0,1,513,214.22V500.94a19.85,19.85,0,0,1-2.79,10A6.83,6.83,0,1,0,522,517.9a33.47,33.47,0,0,0,4.68-17V214.22a61.51,61.51,0,0,0-61.44-61.44Zm0,0"/><path d="M485.69,466.65a41,41,0,1,0-41,41,41,41,0,0,0,41-41Zm-41,27.31A27.31,27.31,0,1,1,472,466.65,27.33,27.33,0,0,1,444.73,494Zm0,0"/><path d="M432.4,514.45a6.83,6.83,0,0,0-9.32,2.5l-14.7,25.47L406,538.89a6.78,6.78,0,0,0-5.29-3.05l-4.22-.25,14.94-25.87a6.83,6.83,0,1,0-11.83-6.83L379.2,538.32a6.83,6.83,0,0,0,5.51,10.23l11.83.71,6.53,9.89a6.81,6.81,0,0,0,5.69,3.06H409a6.86,6.86,0,0,0,5.71-3.41l20.23-35a6.83,6.83,0,0,0-2.51-9.32Zm0,0"/><path d="M490,503.21A6.83,6.83,0,0,0,478.14,510l14.77,25.55-4.22.25a6.85,6.85,0,0,0-5.29,3.05l-2.32,3.52-14.63-25.34a6.83,6.83,0,0,0-11.83,6.83l20.15,34.91a6.87,6.87,0,0,0,5.71,3.41h.21a6.85,6.85,0,0,0,5.7-3.07l6.53-9.88,11.82-.72a6.83,6.83,0,0,0,5.51-10.23Zm0,0"/><path d="M260.41,343.77h41a6.83,6.83,0,1,0,0-13.65h-41a6.83,6.83,0,1,0,0,13.65Zm0,0"/><path d="M260.41,384.73h81.92a6.83,6.83,0,1,0,0-13.65H260.41a6.83,6.83,0,1,0,0,13.65Zm0,0"/><path d="M261.13,469.7a6.82,6.82,0,1,0,12.2-6.11c-6.76-13.52-8.27-25.64-4.07-32.45,2.24-3.62,6.15-5.46,11.62-5.46,3.26,0,4.47,1.12,5.24,2.21,5.09,7.33.25,29.66-4.81,43.18a6.83,6.83,0,0,0,11.22,7.22c2.91-2.91,6.07-5.81,8.82-8.16v3.34A6.83,6.83,0,0,0,313,478.3a85,85,0,0,1,9.78-8.36l-.25.49a6.84,6.84,0,0,0,6.12,9.87H356a6.83,6.83,0,1,0,0-13.65H338.21c.56-3.25.42-6.55-1.23-9.22a9.51,9.51,0,0,0-8.31-4.44c-4.22,0-9.18,2.57-13.72,5.75a7.88,7.88,0,0,0-4.78-6.54c-1.82-.75-4.17-1.73-9.87,1.69,2.25-11.76,2.9-25.32-3-33.77-2.56-3.7-7.49-8.09-16.46-8.09-10.23,0-18.48,4.24-23.24,11.94-6.81,11-5.54,27.68,3.48,45.73Zm0,0"/><path d="M444.73,377.91a6.82,6.82,0,0,0-6.83-6.83H369.63a6.83,6.83,0,1,0,0,13.65H437.9a6.82,6.82,0,0,0,6.83-6.82Zm0,0"/></g></g></svg>